<?xml version="1.0" encoding="utf-8"?>
<!-- Generator: Adobe Illustrator 19.2.1, SVG Export Plug-In . SVG Version: 6.00 Build 0)  -->
<svg version="1.1" id="Layer_1" xmlns="http://www.w3.org/2000/svg" xmlns:xlink="http://www.w3.org/1999/xlink" x="0px" y="0px"
	 viewBox="0 0 355 355" style="enable-background:new 0 0 355 355;" xml:space="preserve">
<style type="text/css">
	.st0{fill:#E6E7E8;}
	.st1{fill:#914D1E;}
	.st2{fill:#8A5516;}
	.st3{fill:#E38C25;}
	.st4{fill:#C36628;}
	.st5{fill:#F1F2F2;}
</style>
<path class="st0" d="M176.2,100.1v218.5c60.2,0,109.2-49,109.2-109.2S236.5,100.1,176.2,100.1z"/>
<g>
	<path class="st1" d="M251.3,128.5c-8.5-8.5-8.5-22.4,0-31l25.8-25.8c8.5-8.5,22.4-8.5,31,0c8.5,8.5,8.5,22.4,0,31l-25.8,25.8
		C273.8,137,259.9,137,251.3,128.5z"/>
	<g>
		<path class="st2" d="M188.6,73c-8.1-1.9-16.7-1.9-24.8,0c-3.6,0.9-7.1-1.9-7.1-5.7V47.1c0-3.2,2.6-5.8,5.8-5.8h27.4
			c3.2,0,5.8,2.6,5.8,5.8v20.2C195.7,71.1,192.2,73.9,188.6,73z"/>
		<path class="st1" d="M189.9,41.3h-13.7v30.3c4.2,0,8.3,0.5,12.4,1.4c3.6,0.8,7.1-1.9,7.1-5.7V47.1
			C195.7,43.9,193.1,41.3,189.9,41.3z"/>
	</g>
	<g>
		<path class="st3" d="M176.2,354.9c-80.3,0-145.6-65.3-145.6-145.6c0-36.6,13.6-70.4,36.3-96.2c19.6-22.3,45.9-38.6,76-45.6
			c21.7-5.1,44.7-5.1,66.4,0c65,15.2,112.4,73.5,112.4,141.8C321.8,289.6,256.5,354.9,176.2,354.9z"/>
		<path class="st4" d="M209.4,67.5c-10.9-2.5-22-3.8-33.2-3.8v291.2c80.3,0,145.6-65.3,145.6-145.6
			C321.8,141.1,274.4,82.7,209.4,67.5z"/>
	</g>
	<path class="st5" d="M176.2,318.6C116,318.6,67,269.6,67,209.3s49-109.2,109.2-109.2s109.2,49,109.2,109.2S236.5,318.6,176.2,318.6
		z"/>
	<g>
		<path class="st3" d="M176.4,259.9c-10.2,0-18.4-9-18.4-20.1V172c0-11.1,8.3-20.1,18.4-20.1c10.2,0,18.4,9,18.4,20.1v67.9
			C194.9,250.9,186.6,259.9,176.4,259.9z"/>
		<path class="st4" d="M176.4,151.9v108c10.2,0,18.4-9,18.4-20.1v-67.9C194.9,160.9,186.6,151.9,176.4,151.9z"/>
	</g>
	<g>
		<path class="st3" d="M210.5,45.1h-68.6c-4.8,0-8.7-4.2-8.7-9.4V9.5c0-5.2,3.9-9.4,8.7-9.4h68.6c4.8,0,8.7,4.2,8.7,9.4v26.2
			C219.2,40.9,215.3,45.1,210.5,45.1z"/>
		<path class="st4" d="M210.5,0.1h-34.3v45h34.3c4.8,0,8.7-4.2,8.7-9.4V9.5C219.2,4.3,215.3,0.1,210.5,0.1z"/>
	</g>
</g>
</svg>
